<svg id="visual" viewBox="0 0 900 450" width="900" height="450" xmlns="http://www.w3.org/2000/svg" xmlns:xlink="http://www.w3.org/1999/xlink" version="1.1"><rect x="0" y="0" width="900" height="450" fill="#000000"></rect><path d="M0 146L21.5 141.7C43 137.3 86 128.7 128.8 119.2C171.7 109.7 214.3 99.3 257.2 103.7C300 108 343 127 385.8 129.5C428.7 132 471.3 118 514.2 115C557 112 600 120 642.8 123.2C685.7 126.3 728.3 124.7 771.2 124.8C814 125 857 127 878.5 128L900 129L900 0L878.5 0C857 0 814 0 771.2 0C728.3 0 685.7 0 642.8 0C600 0 557 0 514.2 0C471.3 0 428.7 0 385.8 0C343 0 300 0 257.2 0C214.3 0 171.7 0 128.8 0C86 0 43 0 21.5 0L0 0Z" fill="#fa7369"></path><path d="M0 75L21.5 81.5C43 88 86 101 128.8 101.2C171.7 101.3 214.3 88.7 257.2 89.7C300 90.7 343 105.3 385.8 109.3C428.7 113.3 471.3 106.7 514.2 101.7C557 96.7 600 93.3 642.8 92.7C685.7 92 728.3 94 771.2 91C814 88 857 80 878.5 76L900 72L900 0L878.5 0C857 0 814 0 771.2 0C728.3 0 685.7 0 642.8 0C600 0 557 0 514.2 0C471.3 0 428.7 0 385.8 0C343 0 300 0 257.2 0C214.3 0 171.7 0 128.8 0C86 0 43 0 21.5 0L0 0Z" fill="#e6516d"></path><path d="M0 95L21.5 88C43 81 86 67 128.8 62.2C171.7 57.3 214.3 61.7 257.2 62.5C300 63.3 343 60.7 385.8 58.3C428.7 56 471.3 54 514.2 54.7C557 55.3 600 58.7 642.8 64.2C685.7 69.7 728.3 77.3 771.2 75.7C814 74 857 63 878.5 57.5L900 52L900 0L878.5 0C857 0 814 0 771.2 0C728.3 0 685.7 0 642.8 0C600 0 557 0 514.2 0C471.3 0 428.7 0 385.8 0C343 0 300 0 257.2 0C214.3 0 171.7 0 128.8 0C86 0 43 0 21.5 0L0 0Z" fill="#cc3073"></path><path d="M0 34L21.5 34.7C43 35.3 86 36.7 128.8 39.8C171.7 43 214.3 48 257.2 51.3C300 54.7 343 56.3 385.8 55.5C428.7 54.7 471.3 51.3 514.2 52.5C557 53.7 600 59.3 642.8 61.3C685.7 63.3 728.3 61.7 771.2 60.7C814 59.7 857 59.3 878.5 59.2L900 59L900 0L878.5 0C857 0 814 0 771.2 0C728.3 0 685.7 0 642.8 0C600 0 557 0 514.2 0C471.3 0 428.7 0 385.8 0C343 0 300 0 257.2 0C214.3 0 171.7 0 128.8 0C86 0 43 0 21.5 0L0 0Z" fill="#aa107a"></path><path d="M0 19L21.5 20.7C43 22.3 86 25.7 128.8 25.8C171.7 26 214.3 23 257.2 23.5C300 24 343 28 385.8 31.3C428.7 34.7 471.3 37.3 514.2 36.5C557 35.7 600 31.3 642.8 32C685.7 32.7 728.3 38.3 771.2 36.7C814 35 857 26 878.5 21.5L900 17L900 0L878.5 0C857 0 814 0 771.2 0C728.3 0 685.7 0 642.8 0C600 0 557 0 514.2 0C471.3 0 428.7 0 385.8 0C343 0 300 0 257.2 0C214.3 0 171.7 0 128.8 0C86 0 43 0 21.5 0L0 0Z" fill="#800080"></path></svg>