<svg id="visual" viewBox="0 0 900 450" width="900" height="450" xmlns="http://www.w3.org/2000/svg" xmlns:xlink="http://www.w3.org/1999/xlink" version="1.1"><rect x="0" y="0" width="900" height="450" fill="#000000"></rect><path d="M0 302L21.5 306.3C43 310.7 86 319.3 128.8 328.8C171.7 338.3 214.3 348.7 257.2 344.3C300 340 343 321 385.8 318.5C428.7 316 471.3 330 514.2 333C557 336 600 328 642.8 324.8C685.7 321.7 728.3 323.3 771.2 323.2C814 323 857 321 878.5 320L900 319L900 451L878.5 451C857 451 814 451 771.2 451C728.3 451 685.7 451 642.8 451C600 451 557 451 514.2 451C471.3 451 428.7 451 385.8 451C343 451 300 451 257.2 451C214.3 451 171.7 451 128.8 451C86 451 43 451 21.5 451L0 451Z" fill="#fa7369"></path><path d="M0 373L21.5 366.5C43 360 86 347 128.8 346.8C171.7 346.7 214.3 359.3 257.2 358.3C300 357.3 343 342.7 385.8 338.7C428.7 334.7 471.3 341.3 514.2 346.3C557 351.3 600 354.7 642.8 355.3C685.7 356 728.3 354 771.2 357C814 360 857 368 878.5 372L900 376L900 451L878.5 451C857 451 814 451 771.2 451C728.3 451 685.7 451 642.8 451C600 451 557 451 514.2 451C471.3 451 428.7 451 385.8 451C343 451 300 451 257.2 451C214.3 451 171.7 451 128.8 451C86 451 43 451 21.5 451L0 451Z" fill="#e6516d"></path><path d="M0 353L21.5 360C43 367 86 381 128.8 385.8C171.7 390.7 214.3 386.3 257.2 385.5C300 384.7 343 387.3 385.8 389.7C428.7 392 471.3 394 514.2 393.3C557 392.7 600 389.3 642.8 383.8C685.7 378.3 728.3 370.7 771.2 372.3C814 374 857 385 878.5 390.5L900 396L900 451L878.5 451C857 451 814 451 771.2 451C728.3 451 685.7 451 642.8 451C600 451 557 451 514.2 451C471.3 451 428.7 451 385.8 451C343 451 300 451 257.2 451C214.3 451 171.7 451 128.8 451C86 451 43 451 21.5 451L0 451Z" fill="#cc3073"></path><path d="M0 414L21.5 413.3C43 412.7 86 411.3 128.8 408.2C171.7 405 214.3 400 257.2 396.7C300 393.3 343 391.7 385.8 392.5C428.7 393.3 471.3 396.7 514.2 395.5C557 394.3 600 388.7 642.8 386.7C685.7 384.7 728.3 386.3 771.2 387.3C814 388.3 857 388.7 878.5 388.8L900 389L900 451L878.5 451C857 451 814 451 771.2 451C728.3 451 685.7 451 642.8 451C600 451 557 451 514.2 451C471.3 451 428.7 451 385.8 451C343 451 300 451 257.2 451C214.3 451 171.7 451 128.8 451C86 451 43 451 21.5 451L0 451Z" fill="#aa107a"></path><path d="M0 429L21.5 427.3C43 425.7 86 422.3 128.8 422.2C171.7 422 214.3 425 257.2 424.5C300 424 343 420 385.8 416.7C428.7 413.3 471.3 410.7 514.2 411.5C557 412.3 600 416.7 642.8 416C685.7 415.3 728.3 409.7 771.2 411.3C814 413 857 422 878.5 426.5L900 431L900 451L878.5 451C857 451 814 451 771.2 451C728.3 451 685.7 451 642.8 451C600 451 557 451 514.2 451C471.3 451 428.7 451 385.8 451C343 451 300 451 257.2 451C214.3 451 171.7 451 128.8 451C86 451 43 451 21.5 451L0 451Z" fill="#800080"></path></svg>